# xmcd CD database file
#
# Track frame offsets:
#	150
#	24562
#	63209
#	91564
#	120539
#	148111
#	186866
#
# Disc length: 3179 seconds
#
# Revision: 0
# Processed by: cddbd v1.5.1PL0 Copyright (c) Steve Scherf et al.
# Submitted via: CDex 1.51
#
DISCID=540c6907
DTITLE=Soulive - Pardise Rock Club/Boston, MA/May 06, 2005/Disc 2
DYEAR=2005
DGENRE=Jazz
TTITLE0=Slippin' Into Darkness
TTITLE1=Reverb
TTITLE2=Hot 2night
TTITLE3=Solid
TTITLE4=Cachasa
TTITLE5=Crosstown Traffic
TTITLE6=Tighten Up
EXTD=YEAR: 2005
EXTT0=
EXTT1=
EXTT2=
EXTT3=
EXTT4=
EXTT5=
EXTT6=
PLAYORDER=
